<svg width="21" height="22" viewBox="0 0 21 22" fill="none" xmlns="http://www.w3.org/2000/svg">
<path opacity="0.5" d="M16.5 19V18.6667C16.5 16.2734 14.6292 14.3333 12.3214 14.3333H8.67857C6.37081 14.3333 4.5 16.2734 4.5 18.6667V19M13.875 8.5C13.875 10.433 12.364 12 10.5 12C8.63604 12 7.125 10.433 7.125 8.5C7.125 6.567 8.63604 5 10.5 5C12.364 5 13.875 6.567 13.875 8.5ZM20.5 11C20.5 16.5228 16.0228 21 10.5 21C4.97715 21 0.5 16.5228 0.5 11C0.5 5.47715 4.97715 1 10.5 1C16.0228 1 20.5 5.47715 20.5 11Z" stroke="white" stroke-linecap="round"/>
</svg>
