<svg width="19" height="23" viewBox="0 0 19 23" fill="none" xmlns="http://www.w3.org/2000/svg">
<path d="M13.0908 0C14.1109 1.64462e-07 14.831 0.000925348 15.3936 0.046875C15.9473 0.092116 16.2823 0.177293 16.5439 0.310547L16.7402 0.420898C17.1866 0.694684 17.5509 1.08652 17.79 1.55566L17.8809 1.76855C17.9632 1.99908 18.0198 2.29166 18.0537 2.70703C18.0996 3.26961 18.1006 3.98967 18.1006 5.00977V17.4902C18.1006 18.5103 18.0996 19.2304 18.0537 19.793C18.0198 20.2083 17.9632 20.5009 17.8809 20.7314L17.79 20.9443C17.5509 21.4135 17.1866 21.8053 16.7402 22.0791L16.5439 22.1895C16.2823 22.3227 15.9473 22.4079 15.3936 22.4531C14.831 22.4991 14.1109 22.5 13.0908 22.5H5.41016C4.39005 22.5 3.67 22.4991 3.10742 22.4531C2.69202 22.4192 2.39948 22.3627 2.16895 22.2803L1.95605 22.1895C1.48714 21.9505 1.09504 21.5867 0.821289 21.1406L0.710938 20.9443C0.5776 20.6826 0.492523 20.3469 0.447266 19.793C0.401329 19.2304 0.400391 18.5103 0.400391 17.4902V5.00977C0.400391 3.98966 0.401329 3.26961 0.447266 2.70703C0.492523 2.1531 0.5776 1.81735 0.710938 1.55566L0.821289 1.35938C1.09504 0.913257 1.48714 0.549548 1.95605 0.310547L2.16895 0.219727C2.39948 0.137325 2.69202 0.080815 3.10742 0.046875C3.67 0.000938059 4.39005 8.97211e-08 5.41016 0H13.0908ZM14.0713 8.1748C13.7785 7.88224 13.3036 7.88224 13.0107 8.1748L8.74023 12.4443L6.87109 10.5752L6.81445 10.5234C6.51987 10.2833 6.0851 10.3006 5.81055 10.5752C5.53604 10.8498 5.51863 11.2845 5.75879 11.5791L5.81055 11.6357L7.78613 13.6113C8.31334 14.1385 9.16811 14.1385 9.69531 13.6113L14.0713 9.23633C14.3642 8.94343 14.3642 8.4677 14.0713 8.1748Z" fill="#4F4F4F"/>
</svg>
