<svg width="321" height="74" viewBox="0 0 321 74" fill="none" xmlns="http://www.w3.org/2000/svg">
<path d="M5 37C5 19.3269 19.3269 5 37 5H284C301.673 5 316 19.3269 316 37V37C316 54.6731 301.673 69 284 69H37C19.3269 69 5 54.6731 5 37V37Z" fill="#FF613E"/>
<path d="M159.805 0.476562L160.906 0.78125L161.914 1.15625L162.922 1.55469C163.064 1.60938 163.139 1.61652 163.203 1.60156L164.211 1.34375L165.219 1.10938C166.2 0.880981 167.216 0.806932 168.219 0.898438L170.234 1.08594C171.496 1.20109 172.646 1.67903 173.656 2.35156L174.664 3.03125L174.805 3.14844L175.133 2.86719L176.141 2.02344C177.314 1.03345 178.923 0.352879 180.758 0.757812L181.789 0.96875L182.797 1.20312C183.752 1.41499 184.678 1.7505 185.562 2.21094L186.57 2.75L186.992 2.98438L187.555 2.58594L188.562 1.90625C189.252 1.43241 190.113 1.05616 191.094 0.992188C191.586 0.961029 192.056 1.0236 192.5 1.13281L193.766 1.625L195.781 2.75C196.242 3.00635 196.671 3.1543 197.047 3.24219L198.055 3.47656L199.062 3.73438C199.329 3.79658 199.58 3.78416 199.836 3.73438L200.844 3.54688L201.875 3.33594C202.825 3.15094 203.796 3.10728 204.758 3.19531L206.773 3.38281C207.333 3.434 207.903 3.44468 208.461 3.42969L210.477 3.38281C210.597 3.37958 210.819 3.34894 211.133 3.17188L212.141 2.58594L213.148 2.02344C214.129 1.47093 215.204 1.0932 216.336 0.96875L217.344 0.851562L218.352 0.757812C219.536 0.627615 220.703 0.780371 221.797 1.20312L222.805 1.60156L223.836 2C224.249 2.15925 224.63 2.23319 224.984 2.25781L225.992 2.32812L227.023 2.39844C227.415 2.42477 227.812 2.41265 228.219 2.32812L229.227 2.11719L230.258 1.90625C231.601 1.62697 232.917 1.80633 234.125 2.35156L235.156 2.82031L235.953 3.17188L236.773 2.82031L237.781 2.375L238.953 2.02344C239.741 1.8743 240.533 1.90474 241.297 2.11719L242.422 2.5625L243.43 3.10156L244.297 3.57031L245.094 3.26562L246.102 2.91406C246.716 2.69623 247.334 2.453 247.953 2.1875L248.961 1.74219L249.992 1.32031L251.117 0.96875C252.249 0.747766 253.393 0.906069 254.469 1.41406L255.5 1.88281L256.508 2.375C256.666 2.44941 256.737 2.42618 256.766 2.42188L257.797 2.25781L258.805 2.09375C259.457 1.98843 260.121 1.88769 260.773 1.76562L262.789 1.39062C264.274 1.11287 265.685 1.43413 266.891 2.14062L267.922 2.75L268.836 3.3125L269.633 3.07812L270.641 2.77344C271.923 2.4117 273.239 2.47615 274.484 2.91406L275.516 3.26562L276.523 3.64062C276.825 3.74691 277.086 3.77442 277.32 3.75781L278.352 3.66406L279.359 3.59375C279.514 3.58183 279.76 3.51662 280.109 3.3125L281.117 2.72656L282.148 2.14062L283.297 1.625C284.09 1.37872 284.924 1.33196 285.758 1.50781L287.023 1.95312L287.984 2.44531L288.828 2.89062L289.906 2.51562L291.055 2.14062L292.203 1.88281C293.383 1.74698 294.582 2.0017 295.672 2.72656L296.586 3.3125L297.477 3.92188C298.089 4.32911 298.701 4.71902 299.281 5.11719L300.969 6.28906C301.234 6.47077 301.558 6.63077 301.953 6.73438L303.008 7.01562L304.086 7.29688C305.54 7.68032 306.73 8.55763 307.508 9.85156L308.633 11.7266C309.058 12.4373 309.443 13.1757 309.781 13.9062L310.672 15.7812C310.953 16.3867 311.215 16.9814 311.492 17.5391L311.938 18.4297L312.383 19.2969C312.613 19.7589 312.867 20.2085 313.156 20.6328L313.695 21.4297L314.258 22.25C314.637 22.8067 315.025 23.3741 315.406 23.9609L315.945 24.8281L316.508 25.6719C316.919 26.3052 317.325 26.9789 317.703 27.6641L318.734 29.5391C319.325 30.6124 319.628 31.7961 319.602 33.0312L319.578 34.0625L319.555 35.1172C319.531 36.2155 319.287 37.2762 318.852 38.2812L318.43 39.2656L317.984 40.2734V40.3906L318.266 41.4453L318.547 42.5234C318.813 43.5535 318.896 44.605 318.805 45.6641L318.711 46.7422L318.617 47.7969C318.503 49.1129 318.015 50.3371 317.188 51.3594L315.828 53.0469C315.459 53.5037 315.143 53.9699 314.867 54.4297L314.328 55.2969L313.789 56.1875C313.275 57.0429 312.642 57.8037 311.891 58.4609L310.344 59.8203C310.096 60.037 309.87 60.3098 309.688 60.6406L308.656 62.5156C308.04 63.6321 307.14 64.5287 306.008 65.1406L304.18 66.125C303.383 66.5554 302.538 66.9006 301.672 67.1562L300.688 67.4609L299.68 67.7656C298.954 67.9797 298.219 68.17 297.5 68.3281L296.539 68.5391L295.578 68.7266C295.553 68.7435 295.49 68.8016 295.391 68.9141L294.594 69.8516L293.797 70.7656C292.776 71.9305 291.329 72.6967 289.602 72.6641H288.547L287.492 72.6406C286.457 72.6211 285.447 72.4221 284.469 72.0781L283.438 71.7266L282.523 71.375L281.586 71.8203L280.578 72.2891C278.979 73.0218 277.29 72.8901 275.82 72.0547L274.812 71.4922L274.18 71.1406L273.617 71.4453L272.609 71.9844C271.296 72.6787 269.797 72.8878 268.297 72.4297L266.281 71.8203C265.931 71.7133 265.603 71.6629 265.297 71.6797L264.266 71.75L263.258 71.7969C262.566 71.8364 261.864 71.8624 261.172 71.8906L259.156 71.9844C258.708 72.0026 258.244 72.0694 257.773 72.1953L256.766 72.4766L255.734 72.7344C254.763 72.9935 253.761 73.1197 252.758 73.0625L251.75 72.9922L250.742 72.9453C249.886 72.8965 249.03 72.7692 248.188 72.5703L247.18 72.3125L246.172 72.0781C245.979 72.0325 245.789 72.0477 245.586 72.1016L244.578 72.3594L243.547 72.6406C242.03 73.0385 240.554 72.7513 239.281 72.0312L238.273 71.4688L237.898 71.2578L237.453 71.6094L236.445 72.3594C235.752 72.87 234.864 73.2835 233.82 73.3438C232.765 73.4029 231.822 73.0936 231.055 72.6172L230.047 71.9844L229.438 71.6094L228.922 71.8906L227.914 72.4062C226.317 73.219 224.566 73.1515 223.039 72.2891L222.031 71.7031L221.023 71.1406L220.836 71.0469L219.828 71.1875L218.797 71.3047C218.213 71.3793 217.627 71.4834 217.039 71.6094L216.008 71.8203L215 72.0547C214.393 72.185 213.782 72.3259 213.172 72.5L212.141 72.8047L211.133 73.0859C210.006 73.4079 208.843 73.458 207.688 73.2266L206.68 73.0391L205.672 72.8281C204.822 72.6578 203.967 72.4184 203.141 72.1016L202.133 71.7031L201.242 71.3516L200.328 71.75L199.32 72.1953C198.245 72.6591 197.091 72.8858 195.898 72.8047L194.891 72.7344L193.859 72.6641C192.929 72.5998 192.013 72.416 191.117 72.125L190.086 71.7969L189.406 71.5391L188.562 72.1016L187.555 72.7344C186.41 73.4582 185.059 73.8783 183.594 73.7188L182.586 73.6016L181.555 73.4844C180.953 73.4191 180.351 73.391 179.75 73.3672L178.719 73.3203L177.711 73.2734C176.419 73.2223 175.236 72.7825 174.195 72.125L173.188 71.4922L172.156 70.8594C171.856 70.6703 171.69 70.6296 171.617 70.625L170.586 70.5781L169.578 70.5312C169.277 70.5181 168.947 70.5575 168.594 70.6719L166.578 71.3281C165.861 71.5603 165.14 71.7858 164.422 71.9844L163.414 72.2656L162.383 72.5469C160.944 72.9425 159.514 72.7563 158.234 72.125L157.203 71.6094L156.195 71.1172C155.922 70.9823 155.745 70.9714 155.633 70.9766L153.617 71.0703C153.253 71.0872 152.86 71.1573 152.445 71.3047L151.438 71.6562L150.406 72.0078C149.162 72.4489 147.847 72.507 146.562 72.1484L144.547 71.5859C143.845 71.3901 143.139 71.1918 142.438 70.9766L141.43 70.6719L140.398 70.3438C140.013 70.2266 139.642 70.1744 139.297 70.1797L137.281 70.2266C136.779 70.2342 136.268 70.2734 135.758 70.3672L134.727 70.5547L133.719 70.7422C133.27 70.8253 132.802 70.9801 132.312 71.1875L131.305 71.6094L130.273 72.0312C128.787 72.6597 127.206 72.6 125.773 71.9141L124.766 71.4453L123.758 70.9531C123.597 70.8759 123.537 70.8798 123.523 70.8828L122.516 71.0703L121.484 71.2344C120.668 71.3729 119.846 71.4509 119.023 71.4688L118.016 71.4922L116.984 71.5156C116.028 71.5354 115.079 71.4273 114.148 71.1875L112.133 70.6719C111.967 70.629 111.813 70.6248 111.641 70.6719L110.609 70.9531L109.602 71.2344C108.828 71.447 108.039 71.598 107.258 71.7266L106.25 71.9141L105.242 72.0781C104.686 72.1697 104.12 72.2898 103.555 72.4531L102.547 72.7578L101.516 73.0391C100.659 73.2862 99.792 73.458 98.9141 73.5312L97.8828 73.6016L96.875 73.6953C95.1256 73.8394 93.6595 73.0652 92.5859 72.1016L91.5781 71.2109L90.6406 70.3438L90.0781 70.4844L89.0703 70.6719C88.7614 70.7298 88.3926 70.8526 87.9688 71.0938L86.9609 71.6797L85.9297 72.2422C84.3671 73.1312 82.5849 73.1778 80.9844 72.3125L79.9766 71.75L78.9688 71.2109C78.706 71.0689 78.5509 71.0451 78.4766 71.0469L77.4453 71.0938L76.4375 71.1406C76.0348 71.1557 75.6088 71.2174 75.1719 71.3516L74.1641 71.6562L73.1562 71.9844C71.9628 72.3509 70.7167 72.3856 69.5 72.0781L67.4844 71.5625C67.0038 71.4411 66.5165 71.3696 66.0547 71.3516L65.0469 71.3047L64.0391 71.2812C63.8995 71.2758 63.6915 71.2856 63.4062 71.4219L61.3906 72.4062C59.8806 73.1275 58.2219 73.0939 56.7266 72.3594L54.7109 71.375C54.2923 71.1693 53.9176 71.0483 53.5859 71L52.5547 70.8594L51.8047 70.7422V70.7656L50.7969 71.5625L49.7656 72.3594C49.0398 72.9354 48.0587 73.429 46.8594 73.4141C45.6637 73.3976 44.684 72.8933 43.9766 72.3125L42.9688 71.4688L42.3125 70.9531L41.9844 71.1172L40.9531 71.5391C39.6254 72.102 38.1824 72.1934 36.7812 71.7031L35.7969 71.3516L34.7891 71C34.2213 70.8016 33.6688 70.6528 33.1484 70.5312L32.2109 70.2969L31.25 70.0859C31.2374 70.085 31.1914 70.0832 31.1562 70.0859C31.0839 70.0924 30.9561 70.0977 30.7812 70.1562L29.6328 70.5547L28.4844 70.9297C27.1033 71.3908 25.5876 71.4113 24.1484 70.7188L23.1875 70.25L22.25 69.8047C21.3341 69.3617 20.5007 68.7746 19.7656 68.0703L18.9922 67.3438L18.2422 66.6172C18.139 66.5183 17.9808 66.4212 17.7266 66.3594L16.6484 66.0781L15.5469 65.8203C14.6372 65.5992 13.7399 65.1143 13.0625 64.2969C12.4126 63.5098 12.1242 62.6053 12.0078 61.7891L11.8203 60.5L11.7266 59.9609L11.2344 59.8438L9.96875 59.5391C8.32235 59.1383 6.80758 58.0441 6.24219 56.1172L5.9375 55.0859L5.63281 54.0312C5.52642 53.672 5.37427 53.3548 5.16406 53.0703L4.53125 52.2031L3.89844 51.3594C3.21695 50.4369 2.74228 49.392 2.51562 48.2656L2.30469 47.2109L2.09375 46.1797C1.98664 45.6468 1.84362 45.1145 1.64844 44.5859L0.898438 42.5703C0.249502 40.8148 0.669469 39.1052 1.57812 37.7656L2.28125 36.7109L2.98438 35.6797L2.79688 34.9297L2.5625 33.8984C2.35709 33.0101 2.2491 32.0947 2.23438 31.1797L2.21094 30.125V29.0703C2.18133 27.2307 3.10242 25.7822 4.41406 24.8281L5.39844 24.1016L6.35938 23.375L6.5 22.5781L6.66406 21.5703C6.85354 20.4376 7.30549 19.3793 8 18.4531L8.60938 17.6562L9.19531 16.8594C9.56241 16.3709 9.92749 15.8513 10.2734 15.3359L10.8359 14.5156L11.3984 13.6719C11.992 12.7875 12.7396 12.0372 13.625 11.4453L15.3125 10.3203C15.4287 10.2409 15.5883 10.0838 15.7578 9.78125L16.3203 8.79688L16.8828 7.78906L17.75 6.66406C18.1093 6.32217 18.5356 6.01327 19.0391 5.79688C19.5278 5.58762 20.0204 5.48052 20.4922 5.44531L21.8281 5.51562L24.3125 5.98438C24.4369 6.0067 24.523 5.98445 24.5703 5.98438L25.3906 5.58594L26.2578 5.14062C26.9855 4.76228 27.7474 4.43226 28.5312 4.17969L30.4062 3.57031C30.6519 3.49038 31.0027 3.3351 31.4375 3.00781L33.3594 1.55469C33.7493 1.26119 34.4312 0.791359 35.2578 0.59375C35.7094 0.485815 36.4564 0.401585 37.2734 0.710938C38.074 1.01682 38.5824 1.60115 38.9141 2.1875L39.3359 2.21094L40.3438 2.32812C40.398 2.33338 40.5154 2.3237 40.7422 2.21094L41.75 1.71875L42.7578 1.20312C43.844 0.662997 45.0449 0.384528 46.2969 0.453125L47.3047 0.5L48.3359 0.570312C49.6729 0.645516 50.8666 1.14266 51.8984 1.85938L52.9297 2.5625L53.6797 3.07812L54.2422 2.86719L55.25 2.51562C56.256 2.14853 57.3157 1.95092 58.3906 1.97656L60.4062 2.02344C61.4216 2.04766 62.425 2.2415 63.3828 2.58594L64.4141 2.96094L65.4219 3.33594C65.4876 3.35954 65.5274 3.35892 65.5391 3.35938C65.5504 3.35966 65.5702 3.34648 65.6094 3.33594L66.6406 3.05469L67.6484 2.77344C68.4762 2.53913 69.313 2.37648 70.1562 2.28125L71.1641 2.16406L72.1953 2.04688C73.3377 1.91902 74.4715 2.04935 75.5469 2.42188L76.5547 2.77344L77.3047 3.05469L78.1719 2.5625L79.1797 2C80.2 1.43355 81.3354 1.07575 82.5312 1.01562L84.5469 0.921875C85.4054 0.878714 86.2704 0.903484 87.125 1.01562L88.1328 1.15625L89.1641 1.27344C90.1107 1.39838 91.0343 1.65705 91.9297 2.02344L92.9375 2.44531L93.9688 2.86719C94.3645 3.02837 94.722 3.10424 95.0469 3.125L96.0547 3.19531L97.0859 3.24219C97.3204 3.25598 97.5779 3.23455 97.8828 3.125L98.9141 2.75L99.9219 2.375C101.267 1.8879 102.684 1.90206 104.023 2.39844L106.039 3.14844C106.38 3.27471 106.684 3.31902 106.953 3.3125L107.961 3.28906L108.992 3.26562C109.687 3.24759 110.383 3.24627 111.078 3.24219L112.086 3.21875H113.117C113.952 3.21437 114.796 3.27794 115.625 3.40625L116.633 3.57031L117.242 3.66406L118.25 2.79688L119.258 1.90625L120.219 1.17969C120.911 0.764664 121.71 0.477633 122.586 0.429688L123.969 0.546875L124.977 0.78125L125.984 1.03906C126.256 1.10262 126.52 1.08878 126.781 1.03906L128.797 0.664062C129.83 0.467204 130.879 0.457318 131.914 0.640625L132.945 0.828125L133.953 0.992188C134.981 1.17503 135.959 1.54447 136.883 2.04688L137.914 2.60938L138.922 3.17188C139.3 3.37718 139.618 3.44951 139.859 3.47656L140.867 3.59375L141.57 3.6875L141.594 3.66406L142.602 2.75L143.609 1.85938C144.24 1.30026 145.088 0.787339 146.141 0.617188C146.694 0.528352 147.233 0.537405 147.734 0.640625L149.117 1.15625L150.125 1.74219L151.133 2.30469C151.215 2.35104 151.273 2.39147 151.297 2.39844L152.305 2.25781L153.336 2.11719C153.711 2.06619 154.117 1.95711 154.555 1.76562L155.562 1.32031L156.594 0.875L157.648 0.523438C158.358 0.363492 159.084 0.351333 159.805 0.476562ZM157.977 6.82812L156.969 7.27344C156.059 7.67129 155.105 7.93932 154.133 8.07031L153.102 8.21094L152.094 8.32812C150.681 8.517 149.343 8.18946 148.18 7.53125L147.172 6.96875L146.984 6.85156L146.586 7.25L145.555 8.14062C144.464 9.10751 142.989 9.85996 141.219 9.66406L140.188 9.54688L139.18 9.45312C138.069 9.32867 137.012 8.95246 136.039 8.42188L135.031 7.88281L134.023 7.32031C133.597 7.08784 133.22 6.95559 132.898 6.89844L131.891 6.73438L130.859 6.54688C130.547 6.49256 130.237 6.4868 129.922 6.54688L128.914 6.75781L127.906 6.94531C126.815 7.15334 125.705 7.12707 124.625 6.875L123.617 6.64062L123.078 6.5L122.211 7.27344L121.203 8.1875C120.088 9.17607 118.549 9.92263 116.727 9.64062L115.719 9.5L114.688 9.33594C114.169 9.25621 113.653 9.21574 113.141 9.21875H112.133L111.102 9.24219C110.449 9.2461 109.786 9.24865 109.133 9.26562L107.117 9.3125C106.034 9.34067 104.964 9.14803 103.953 8.77344L101.938 8.02344L100.953 8.39844L99.9453 8.77344C98.9044 9.15121 97.8018 9.31339 96.6875 9.24219L94.6719 9.10156C93.6491 9.03621 92.6468 8.8105 91.6953 8.42188L90.6641 8L89.6562 7.57812C89.2028 7.39261 88.7691 7.27931 88.3672 7.22656L87.3594 7.08594L86.3516 6.96875C85.8529 6.9033 85.3463 6.87357 84.8516 6.89844L83.8438 6.94531L82.8359 7.01562C82.6792 7.0235 82.4397 7.0674 82.1094 7.25L81.0781 7.8125L80.0703 8.375C78.716 9.12653 77.1462 9.33466 75.5938 8.79688L73.5781 8.09375C73.3019 7.99808 73.0606 7.97645 72.8516 8L70.8359 8.23438C70.3293 8.29145 69.8111 8.39167 69.2891 8.53906L68.2578 8.82031L67.25 9.125C65.9565 9.49007 64.6335 9.41247 63.3828 8.96094L62.375 8.60938L61.3672 8.23438C60.9754 8.09294 60.5993 8.0314 60.2656 8.02344L58.25 7.97656C57.9716 7.96992 57.6599 8.01386 57.3125 8.14062L56.3047 8.51562L55.2734 8.89062C53.5414 9.51816 51.8573 9.12016 50.5156 8.1875L49.5078 7.48438L48.4766 6.78125C48.1917 6.58378 48.0444 6.55053 48.0078 6.54688L46.9766 6.5L45.9688 6.42969C45.8686 6.4243 45.6949 6.43842 45.4297 6.57031L44.4219 7.08594L43.4141 7.57812C42.2927 8.13571 41.054 8.40861 39.7578 8.28125L38.7266 8.1875L37.7188 8.09375C37.2092 8.04289 36.5909 7.91835 35.9844 7.64844C35.8456 7.58657 35.7136 7.48059 35.5625 7.39062L35.0469 7.78906C34.192 8.4325 33.2428 8.96414 32.2344 9.28906L30.3594 9.89844C29.8924 10.0491 29.4493 10.2395 29.0234 10.4609L27.2891 11.3516C25.9703 12.0379 24.5468 12.1213 23.2578 11.8906L22.0156 11.6562L21.6172 11.5625L21.5469 11.7266L20.9844 12.7109C20.4113 13.7336 19.6429 14.6421 18.6406 15.3125L16.9531 16.4375C16.7217 16.593 16.5227 16.769 16.3672 17L15.2422 18.6875C14.8401 19.2863 14.429 19.8741 14 20.4453L13.3906 21.2422L12.8047 22.0391C12.7027 22.1748 12.6297 22.3399 12.5938 22.5547L12.4297 23.5625L12.2422 24.5703C11.9759 26.1619 11.0627 27.379 9.89844 28.2266L8.91406 28.9531L8.21094 29.4688V30.0312L8.23438 31.0859C8.24236 31.5821 8.3135 32.0691 8.42188 32.5391L8.65625 33.5703L8.89062 34.5781C9.27646 36.2448 8.78963 37.7981 7.95312 39.0312L7.25 40.0859L6.66406 40.9062L6.89844 41.4922L7.27344 42.5C7.57608 43.3187 7.80652 44.1596 7.97656 45.0078L8.39844 47.0703C8.44964 47.3257 8.53764 47.5729 8.70312 47.7969L9.35938 48.6406L9.99219 49.5078C10.6265 50.3671 11.0972 51.3191 11.3984 52.3438L11.7031 53.3984L11.8203 53.7969L12.6406 54.0078L13.8828 54.3125C14.7613 54.5254 15.6713 54.9709 16.3906 55.7656C16.747 56.1602 17.0188 56.5886 17.2109 57.0312L17.5859 58.3906L17.75 59.6562L17.8203 60.1953L18.0547 60.2656L19.1562 60.5234C20.3667 60.8178 21.4733 61.4024 22.3906 62.2812L23.1406 63.0078L23.9141 63.7344C24.1972 64.0057 24.5103 64.2244 24.8516 64.3906L25.8125 64.8594L26.5859 65.2109L27.7344 64.8594L28.8828 64.4609C30.0464 64.0719 31.322 63.928 32.6094 64.2266L33.5703 64.4609L34.5312 64.6719C35.2755 64.846 36.0268 65.0642 36.7812 65.3281L37.7656 65.6797L38.6797 65.9844L39.6406 65.5859L40.6484 65.1641L42.0547 64.7891C42.9843 64.6962 43.8719 64.8927 44.6562 65.2812L45.7578 66.0078L46.7656 66.8281L46.9297 66.9688L47.0703 66.875L48.0781 66.0547C49.2176 65.1506 50.6976 64.5255 52.3906 64.7656L53.3984 64.9297L54.4297 65.0703C55.4467 65.2162 56.4305 65.5281 57.3594 65.9844L58.3672 66.4766L59.0703 66.8281L59.8203 66.5L60.8281 66.0078C61.8955 65.4984 63.0606 65.2339 64.2734 65.2812L65.2812 65.3047L66.2891 65.3516C67.179 65.3863 68.0662 65.5302 68.9375 65.75L69.9688 66.0078L70.9766 66.2422C71.1131 66.2767 71.2386 66.2913 71.3984 66.2422L72.4062 65.9375L73.4141 65.6094C74.3295 65.3282 75.2768 65.1755 76.2266 65.1406L77.2344 65.0938L78.2422 65.0703C79.5236 65.0232 80.7457 65.3523 81.8281 65.9375L82.8359 66.4766L83.3984 66.7812L83.9844 66.4531L84.9922 65.8672C85.9205 65.3388 86.9253 64.9612 87.9688 64.7656L89.9844 64.3906L91.3438 64.3203C92.6283 64.4396 93.7329 65.0616 94.5781 65.8203L96.5938 67.6484L96.6406 67.6719L97.3906 67.625L98.4219 67.5547C98.889 67.5153 99.3634 67.4142 99.8516 67.2734L100.883 66.9922L101.891 66.6875C102.675 66.461 103.464 66.2793 104.258 66.1484L105.289 65.9844L106.297 65.8203C106.864 65.7269 107.434 65.6028 108.008 65.4453L109.039 65.1641L110.047 64.8828C111.223 64.5595 112.426 64.5556 113.609 64.8594L114.641 65.1172L115.648 65.375C116.068 65.4832 116.474 65.5242 116.867 65.5156L117.875 65.4922L118.906 65.4688C119.427 65.4569 119.95 65.4171 120.477 65.3281L121.508 65.1406L122.516 64.9766C123.857 64.7483 125.157 64.9766 126.336 65.5391L127.367 66.0312L128.164 66.4062L128.961 66.0781L129.969 65.6562C130.83 65.2916 131.715 65.027 132.617 64.8594L133.648 64.6484L134.656 64.4609C135.494 64.3061 136.342 64.2395 137.188 64.2266L139.203 64.1797C140.208 64.1643 141.217 64.3294 142.18 64.625L144.195 65.2344C144.848 65.4346 145.512 65.6384 146.164 65.8203L148.18 66.3828C148.247 66.4016 148.306 66.3977 148.414 66.3594L149.422 66.0078L150.43 65.6328C151.368 65.2998 152.347 65.1162 153.336 65.0703L155.352 64.9766C156.592 64.919 157.788 65.1925 158.867 65.7266L159.875 66.2422L160.859 66.7109L161.797 66.4766L162.828 66.1953C163.459 66.0208 164.094 65.8378 164.727 65.6328L165.734 65.3047L166.766 64.9766C167.762 64.6549 168.788 64.486 169.836 64.5312L170.867 64.5781L171.875 64.625C173.158 64.6819 174.332 65.1203 175.367 65.7734L176.398 66.4297L177.406 67.0625C177.712 67.255 177.882 67.2705 177.945 67.2734L178.953 67.3203L179.984 67.3672C180.727 67.3966 181.469 67.4506 182.211 67.5312L183.219 67.6484L184.18 67.7188C184.202 67.7105 184.265 67.7209 184.344 67.6719L185.352 67.0156L186.383 66.3828L187.414 65.8438C188.497 65.4251 189.704 65.353 190.93 65.75L191.961 66.0781L192.969 66.4062C193.422 66.554 193.862 66.6353 194.281 66.6641L196.297 66.8047C196.456 66.8156 196.677 66.8068 196.953 66.6875L198.969 65.7969C200.348 65.2022 201.839 65.1614 203.258 65.7031L204.289 66.1016L205.297 66.5C205.822 66.7011 206.342 66.8448 206.844 66.9453L207.852 67.1562L208.859 67.3438C209.058 67.3835 209.266 67.3849 209.492 67.3203L210.5 67.0391L211.508 66.7344C212.247 66.5233 212.992 66.3313 213.734 66.1719L214.766 65.9609L215.773 65.75C216.53 65.5877 217.287 65.4483 218.047 65.3516L219.078 65.2344L220.086 65.0938C221.489 64.9165 222.82 65.2609 223.977 65.9141L224.984 66.4766L225.594 66.8281L226.203 66.5234L227.211 66.0078C228.461 65.3712 229.787 65.3053 231.008 65.7031L232.203 66.2656L233.211 66.875L233.516 67.0625L233.914 66.7812L234.922 66.0312L236.07 65.375C236.491 65.2026 236.955 65.0902 237.453 65.0469C237.969 65.0027 238.467 65.0518 238.93 65.1641L240.219 65.6562L241.227 66.2422L242.188 66.7812L243.031 66.5703L244.062 66.2891C245.206 65.9879 246.377 65.9711 247.531 66.2422L248.562 66.4766L249.57 66.7344C250.076 66.8536 250.577 66.9166 251.07 66.9453L252.102 66.9922L253.109 67.0625C253.455 67.0822 253.811 67.0454 254.188 66.9453L255.219 66.6641L256.227 66.4062C257.106 66.1709 257.997 66.0218 258.898 65.9844L259.93 65.9375L260.938 65.9141C261.598 65.8872 262.269 65.858 262.93 65.8203L263.938 65.75L264.945 65.7031C265.989 65.6435 267.017 65.7742 268.016 66.0781L269.047 66.3828L269.891 66.6172L270.828 66.1484L271.836 65.6094L273.055 65.1406C273.889 64.9365 274.741 64.9544 275.562 65.1875L276.758 65.6797L277.766 66.2656L278.422 66.6406L279.102 66.3594L280.109 65.9141L281.164 65.5391C282.222 65.2771 283.323 65.3243 284.398 65.7031L285.43 66.0547L286.461 66.4297C286.851 66.5662 287.234 66.6335 287.609 66.6406L288.664 66.6641H289.391L290.07 65.8906L290.891 64.9766C291.752 63.9941 292.866 63.1999 294.266 62.8906L295.25 62.6797L296.211 62.4453C296.79 62.318 297.393 62.1768 297.992 62L298.977 61.6953L299.984 61.4141C300.445 61.2778 300.889 61.0846 301.32 60.8516L302.234 60.3594L303.172 59.8672C303.266 59.8157 303.334 59.7411 303.406 59.6094L304.438 57.7344C304.944 56.8184 305.595 56.0102 306.383 55.3203L307.156 54.6406L307.953 53.9375C308.233 53.6904 308.467 53.4088 308.656 53.0938L309.172 52.2266L309.711 51.3359C310.138 50.6235 310.628 49.9367 311.164 49.2734L312.523 47.5859C312.606 47.4833 312.631 47.3914 312.641 47.2812L312.734 46.2266L312.828 45.1484C312.859 44.7843 312.835 44.4145 312.734 44.0234L312.453 42.9453L312.172 41.8906C311.825 40.5455 311.942 39.1702 312.5 37.8828L312.922 36.8984L313.344 35.8906C313.481 35.5732 313.548 35.2698 313.555 34.9766L313.578 33.9453L313.602 32.8906C313.604 32.7391 313.579 32.5941 313.484 32.4219L312.453 30.5469C312.141 29.9818 311.798 29.4597 311.469 28.9531L310.93 28.0859L309.289 25.625L308.75 24.8281L308.188 24.0078C307.744 23.3573 307.343 22.6745 306.992 21.9688L306.57 21.1016L306.125 20.2109C305.822 19.6006 305.514 18.9654 305.211 18.3125L304.789 17.375L304.344 16.4141C304.099 15.8871 303.82 15.3548 303.5 14.8203L302.938 13.8828L302.422 13.0391L301.484 12.8047L300.43 12.5234C299.409 12.2557 298.44 11.831 297.57 11.2344L295.883 10.0625C295.328 9.68159 294.738 9.3059 294.148 8.91406L293.258 8.30469L292.672 7.90625L291.781 8.21094L290.656 8.58594C289.219 9.05692 287.675 9.00191 286.25 8.28125L285.289 7.78906L284.773 7.53125L284.164 7.90625L283.133 8.49219C282.123 9.08267 281.003 9.47954 279.805 9.57031L278.797 9.66406L277.789 9.73438C276.675 9.81875 275.576 9.65738 274.531 9.28906L273.5 8.9375L272.492 8.5625C272.391 8.5275 272.347 8.54392 272.281 8.5625L271.273 8.84375L270.242 9.125C268.685 9.5624 267.172 9.27359 265.883 8.51562L264.875 7.92969L263.844 7.32031C263.821 7.30702 263.811 7.27983 263.797 7.27344L262.883 7.46094L261.875 7.67188C261.175 7.80286 260.466 7.91029 259.766 8.02344L258.758 8.1875L257.727 8.35156C256.401 8.56429 255.121 8.33968 253.953 7.78906L252.922 7.29688L252.125 6.92188L251.328 7.27344L250.32 7.69531C249.589 8.00905 248.853 8.30135 248.117 8.5625L247.086 8.91406L246.078 9.28906C244.558 9.82794 243.012 9.65398 241.648 8.9375L240.641 8.39844L239.867 8L239.164 8.32812L238.156 8.77344C236.697 9.41076 235.124 9.38026 233.68 8.72656L232.672 8.28125L231.664 7.8125C231.589 7.77851 231.54 7.76831 231.523 7.76562H231.477L230.469 7.97656L229.438 8.1875C228.501 8.38221 227.554 8.46415 226.602 8.39844L225.594 8.32812L224.562 8.25781C223.567 8.18823 222.592 7.96409 221.656 7.60156L219.641 6.80469C219.382 6.70466 219.175 6.69259 219.008 6.71094L216.992 6.94531C216.772 6.96954 216.474 7.04052 216.102 7.25L215.094 7.8125L214.062 8.39844C213.025 8.98214 211.871 9.34975 210.641 9.38281L208.625 9.42969C207.831 9.45103 207.027 9.4318 206.234 9.35938L205.227 9.26562L204.195 9.17188C203.809 9.13708 203.422 9.16431 203.023 9.24219L202.016 9.42969L200.984 9.64062C199.891 9.85316 198.786 9.82324 197.703 9.57031L196.695 9.33594L195.664 9.10156C194.693 8.87401 193.763 8.493 192.875 8L191.844 7.4375L191.422 7.17969L190.953 7.53125L189.945 8.23438C189.267 8.70076 188.418 9.06879 187.461 9.14844C186.493 9.22736 185.588 8.9895 184.812 8.58594L183.805 8.07031L182.797 7.53125C182.335 7.29062 181.9 7.15055 181.508 7.0625L180.477 6.82812L179.891 6.6875L179 7.46094L177.992 8.30469C177.324 8.8683 176.412 9.37739 175.297 9.47656C174.157 9.57576 173.155 9.22645 172.367 8.70312L171.336 8.02344L170.328 7.34375C169.991 7.11974 169.787 7.07121 169.695 7.0625L168.688 6.96875L167.656 6.875C167.308 6.84394 166.948 6.8828 166.578 6.96875L164.562 7.4375C163.274 7.73739 161.977 7.62349 160.766 7.15625L159.758 6.75781L158.867 6.42969L157.977 6.82812Z" fill="#FF613E"/>
</svg>
